<svg width="125" height="46" viewBox="0 0 125 46" fill="none" xmlns="http://www.w3.org/2000/svg">
<path d="M102.181 21.4734C100.022 21.4734 97.9125 22.1661 96.1179 23.4638C94.3234 24.7615 92.9247 26.6061 92.0987 28.7641C91.2728 30.9222 91.0567 33.2969 91.4778 35.5878C91.8988 37.8788 92.9381 39.9832 94.4643 41.6349C95.9904 43.2867 97.9348 44.4115 100.052 44.8672C102.168 45.3229 104.363 45.089 106.357 44.1951C108.351 43.3012 110.055 41.7874 111.254 39.8452C112.453 37.903 113.093 35.6196 113.093 33.2838C113.09 30.1525 111.939 27.1505 109.893 24.9364C107.848 22.7223 105.074 21.4769 102.181 21.4734ZM102.181 38.6521C101.2 38.6521 100.241 38.3373 99.4248 37.7474C98.6091 37.1575 97.9734 36.3191 97.5979 35.3381C97.2225 34.3572 97.1243 33.2778 97.3157 32.2364C97.5071 31.1951 97.9795 30.2385 98.6732 29.4878C99.3669 28.737 100.251 28.2257 101.213 28.0186C102.175 27.8114 103.172 27.9177 104.079 28.324C104.985 28.7304 105.76 29.4184 106.305 30.3013C106.85 31.1841 107.141 32.222 107.141 33.2838C107.139 34.707 106.616 36.0715 105.686 37.0779C104.756 38.0843 103.496 38.6505 102.181 38.6521Z" fill="white"/>
<path d="M26.7855 21.4734C24.6272 21.4734 22.5174 22.1661 20.7229 23.4638C18.9283 24.7615 17.5297 26.6061 16.7037 28.7641C15.8778 30.9222 15.6617 33.2969 16.0827 35.5878C16.5038 37.8788 17.5431 39.9832 19.0692 41.6349C20.5954 43.2867 22.5398 44.4115 24.6566 44.8672C26.7734 45.3229 28.9675 45.089 30.9615 44.1951C32.9555 43.3012 34.6598 41.7874 35.8589 39.8452C37.058 37.903 37.698 35.6196 37.698 33.2838C37.6947 30.1525 36.544 27.1505 34.4982 24.9364C32.4524 22.7223 29.6787 21.4769 26.7855 21.4734ZM26.7855 38.6521C25.8045 38.6521 24.8455 38.3373 24.0298 37.7474C23.2141 37.1575 22.5783 36.3191 22.2029 35.3381C21.8274 34.3572 21.7292 33.2778 21.9206 32.2364C22.112 31.1951 22.5844 30.2385 23.2781 29.4878C23.9718 28.737 24.8556 28.2257 25.8178 28.0186C26.78 27.8114 27.7773 27.9177 28.6837 28.324C29.5901 28.7304 30.3647 29.4184 30.9098 30.3013C31.4548 31.1841 31.7457 32.222 31.7457 33.2838C31.7442 34.707 31.2211 36.0715 30.2912 37.0779C29.3613 38.0843 28.1006 38.6505 26.7855 38.6521Z" fill="white"/>
<path d="M124.601 27.381C124.285 26.7881 116.716 12.884 102.181 12.884C88.1369 12.884 80.7985 9.47809 79.8437 9.00272C78.2175 7.85309 66.8045 0 58.5308 0H34.7216C26.6873 0 15.6929 7.4051 13.5742 8.8865L2.03494 13.0494C1.44237 13.2632 0.926978 13.6733 0.561758 14.2217C0.196537 14.7702 5.75913e-06 15.429 2.42691e-10 16.1051V33.2838C-8.78217e-06 34.0284 0.238343 34.75 0.674505 35.3258C1.11067 35.9017 1.7177 36.2962 2.39232 36.4423L13.9199 38.9385C13.031 36.575 12.7128 34.0054 12.9951 31.4719C13.2775 28.9384 14.1511 26.5244 15.5338 24.4573C16.9165 22.3903 18.7626 20.7382 20.8983 19.6569C23.034 18.5755 25.3889 18.1003 27.7412 18.2762C30.0934 18.4521 32.3656 19.2733 34.3436 20.6623C36.3215 22.0513 37.9402 23.9624 39.0471 26.2156C40.1539 28.4689 40.7125 30.99 40.6703 33.5414C40.628 36.0929 39.9862 38.5907 38.8054 40.7995H90.1607C88.9387 38.5147 88.2943 35.9218 88.2922 33.2818C88.2902 30.6418 88.9306 28.0478 90.149 25.7608C91.3675 23.4738 93.121 21.5744 95.2332 20.2537C97.3453 18.9331 99.7416 18.2378 102.181 18.2378C104.62 18.2378 107.016 18.9331 109.129 20.2537C111.241 21.5744 112.994 23.4738 114.213 25.7608C115.431 28.0478 116.072 30.6418 116.07 33.2818C116.067 35.9218 115.423 38.5147 114.201 40.7995H122.022C122.811 40.7995 123.568 40.4601 124.126 39.8561C124.684 39.252 124.998 38.4327 124.998 37.5785V28.9891C124.998 28.4247 124.861 27.8702 124.601 27.381ZM58.5308 32.2101H46.6262C45.8369 32.2101 45.0799 31.8708 44.5218 31.2667C43.9636 30.6626 43.6501 29.8434 43.6501 28.9891C43.6501 28.1348 43.9636 27.3156 44.5218 26.7115C45.0799 26.1074 45.8369 25.7681 46.6262 25.7681H58.5308C59.3201 25.7681 60.0771 26.1074 60.6352 26.7115C61.1934 27.3156 61.5069 28.1348 61.5069 28.9891C61.5069 29.8434 61.1934 30.6626 60.6352 31.2667C60.0771 31.8708 59.3201 32.2101 58.5308 32.2101ZM70.4353 32.2101C69.8467 32.2101 69.2713 32.0212 68.7819 31.6673C68.2925 31.3133 67.911 30.8103 67.6858 30.2217C67.4605 29.6332 67.4016 28.9855 67.5164 28.3607C67.6312 27.7359 67.9147 27.162 68.3309 26.7115C68.7471 26.261 69.2774 25.9543 69.8547 25.83C70.432 25.7057 71.0304 25.7695 71.5743 26.0133C72.1181 26.2571 72.5829 26.6699 72.9099 27.1996C73.2369 27.7293 73.4115 28.352 73.4115 28.9891C73.4115 29.8434 73.0979 30.6626 72.5398 31.2667C71.9817 31.8708 71.2247 32.2101 70.4353 32.2101ZM71.7664 13.6176C71.3531 13.8412 70.8974 13.9577 70.4353 13.9577H46.6262C46.3063 13.9577 45.9885 13.9019 45.685 13.7924C45.5374 13.7395 34.1264 9.66303 26.7853 9.66303H17.3452C21.7955 6.96705 29.0072 3.22101 34.7216 3.22101H58.5308C64.9295 3.22101 73.2076 7.91832 77.3814 10.5791L71.7664 13.6176ZM82.3399 32.2101C81.7513 32.2101 81.1759 32.0212 80.6865 31.6673C80.197 31.3133 79.8156 30.8103 79.5903 30.2217C79.3651 29.6332 79.3061 28.9855 79.421 28.3607C79.5358 27.7359 79.8192 27.162 80.2355 26.7115C80.6517 26.261 81.182 25.9543 81.7593 25.83C82.3366 25.7057 82.935 25.7695 83.4788 26.0133C84.0227 26.2571 84.4875 26.6699 84.8145 27.1996C85.1415 27.7293 85.3161 28.352 85.3161 28.9891C85.3161 29.8434 85.0025 30.6626 84.4444 31.2667C83.8862 31.8708 83.1292 32.2101 82.3399 32.2101Z" fill="white"/>
</svg>
